<svg width="25" height="24" viewBox="0 0 25 24" fill="none" xmlns="http://www.w3.org/2000/svg">
  <path
    d="M17.79 5.70016C17.6975 5.60746 17.5876 5.53391 17.4666 5.48373C17.3457 5.43354 17.216 5.40771 17.085 5.40771C16.9541 5.40771 16.8244 5.43354 16.7034 5.48373C16.5824 5.53391 16.4725 5.60745 16.38 5.70016L12.5 9.58016L8.62002 5.70016C8.52744 5.60758 8.41753 5.53414 8.29656 5.48403C8.1756 5.43393 8.04595 5.40814 7.91502 5.40814C7.78409 5.40814 7.65444 5.43393 7.53348 5.48403C7.41251 5.53414 7.3026 5.60758 7.21002 5.70016C7.11744 5.79274 7.044 5.90265 6.99389 6.02361C6.94379 6.14458 6.918 6.27423 6.918 6.40516C6.918 6.53609 6.94379 6.66574 6.99389 6.7867C7.044 6.90767 7.11744 7.01758 7.21002 7.11016L11.8 11.7002C11.8925 11.7929 12.0024 11.8664 12.1234 11.9166C12.2444 11.9668 12.3741 11.9926 12.505 11.9926C12.636 11.9926 12.7657 11.9668 12.8866 11.9166C13.0076 11.8664 13.1175 11.7929 13.21 11.7002L17.79 7.12016C18.18 6.73016 18.18 6.09016 17.79 5.70016Z"
    fill="#F5892E" />
  <path
    d="M17.7902 12.29C17.6977 12.1973 17.5878 12.1238 17.4668 12.0736C17.3459 12.0234 17.2162 11.9976 17.0852 11.9976C16.9543 11.9976 16.8246 12.0234 16.7036 12.0736C16.5826 12.1238 16.4727 12.1973 16.3802 12.29L12.5002 16.17L8.62022 12.29C8.43324 12.103 8.17965 11.998 7.91522 11.998C7.6508 11.998 7.3972 12.103 7.21022 12.29C7.02324 12.477 6.9182 12.7306 6.9182 12.995C6.9182 13.2594 7.02324 13.513 7.21022 13.7L11.8002 18.29C11.8927 18.3827 12.0026 18.4563 12.1236 18.5064C12.2446 18.5566 12.3743 18.5824 12.5052 18.5824C12.6362 18.5824 12.7659 18.5566 12.8868 18.5064C13.0078 18.4563 13.1177 18.3827 13.2102 18.29L17.8002 13.7C18.1802 13.32 18.1802 12.68 17.7902 12.29Z"
    fill="#F5892E" />
</svg>
