<svg width="202" height="30" viewBox="0 0 202 30" fill="none" xmlns="http://www.w3.org/2000/svg">
  <g clip-path="url(#clip0_440_3185)">
    <path
      d="M91.1811 21.9231H88.698L88.5355 20.5371C88.11 21.0479 87.5801 21.4461 86.9458 21.7315C86.3114 22.0095 85.6075 22.1484 84.8338 22.1484C84.0138 22.1484 83.2828 21.9944 82.6407 21.6864C81.9987 21.371 81.4919 20.9428 81.1206 20.4018C80.757 19.861 80.5752 19.245 80.5752 18.554C80.5752 17.8253 80.7726 17.1868 81.1671 16.6383C81.5693 16.0825 82.1147 15.6467 82.8031 15.3313C83.4994 15.0158 84.2924 14.8581 85.182 14.8581C85.7235 14.8581 86.2651 14.9181 86.8065 15.0383C87.3557 15.1585 87.8625 15.3276 88.3266 15.5454V15.1848C88.3266 14.689 88.1874 14.2608 87.9089 13.9003C87.6303 13.5397 87.2552 13.2617 86.7834 13.0664C86.3114 12.8635 85.7816 12.7621 85.1936 12.7621C84.6598 12.7621 84.126 12.8523 83.5922 13.0326C83.0585 13.2054 82.5595 13.4646 82.0953 13.8102L81.283 11.6354C82.0257 11.2372 82.7839 10.9368 83.5574 10.7339C84.3388 10.5311 85.1007 10.4297 85.8434 10.4297C86.9342 10.4297 87.878 10.64 88.6748 11.0607C89.4715 11.4739 90.0865 12.0673 90.5198 12.841C90.9607 13.6073 91.1811 14.5125 91.1811 15.5566V21.9231ZM85.4257 19.9173C85.9286 19.9173 86.3927 19.8159 86.8182 19.6131C87.2513 19.4103 87.6034 19.1286 87.8741 18.768C88.1526 18.3999 88.2996 17.9792 88.315 17.506V17.3821C87.9514 17.1267 87.5415 16.9313 87.0851 16.7961C86.6285 16.6533 86.1683 16.582 85.7042 16.582C84.9925 16.582 84.4084 16.7398 83.9519 17.0552C83.4955 17.3633 83.2674 17.7689 83.2674 18.2722C83.2674 18.5803 83.3602 18.8619 83.5458 19.1174C83.7315 19.3652 83.9867 19.5606 84.3117 19.7033C84.6443 19.846 85.0156 19.9173 85.4257 19.9173ZM112.753 21.9231H109.898V16.1425C109.898 15.1209 109.678 14.3285 109.237 13.765C108.804 13.1941 108.189 12.9087 107.392 12.9087C106.587 12.9087 105.957 13.1941 105.5 13.765C105.052 14.336 104.827 15.1284 104.827 16.1425V21.9231H101.973V16.1425C101.973 15.1209 101.752 14.3285 101.311 13.765C100.87 13.1941 100.255 12.9087 99.4664 12.9087C98.6541 12.9087 98.0197 13.1941 97.5633 13.765C97.1146 14.336 96.8903 15.1284 96.8903 16.1425V21.9231H94.0358V10.6551H96.3217L96.4261 12.5706C96.8206 11.872 97.3429 11.3424 97.9927 10.9818C98.6502 10.6137 99.4238 10.4297 100.313 10.4297C101.234 10.4297 102.027 10.625 102.692 11.0156C103.365 11.3987 103.88 11.9508 104.236 12.672C104.622 11.9358 105.152 11.38 105.825 11.0044C106.498 10.6212 107.291 10.4297 108.204 10.4297C109.635 10.4297 110.749 10.8729 111.546 11.7593C112.351 12.6382 112.753 13.8627 112.753 15.4327V21.9231ZM131.168 21.9231H128.685L128.522 20.5371C128.097 21.0479 127.567 21.4461 126.932 21.7315C126.298 22.0095 125.594 22.1484 124.821 22.1484C124.001 22.1484 123.27 21.9944 122.627 21.6864C121.986 21.371 121.478 20.9428 121.108 20.4018C120.744 19.861 120.562 19.245 120.562 18.554C120.562 17.8253 120.76 17.1868 121.154 16.6383C121.556 16.0825 122.101 15.6467 122.79 15.3313C123.487 15.0158 124.279 14.8581 125.169 14.8581C125.711 14.8581 126.252 14.9181 126.793 15.0383C127.342 15.1585 127.85 15.3276 128.313 15.5454V15.1848C128.313 14.689 128.174 14.2608 127.896 13.9003C127.617 13.5397 127.243 13.2617 126.771 13.0664C126.298 12.8635 125.768 12.7621 125.181 12.7621C124.646 12.7621 124.113 12.8523 123.579 13.0326C123.046 13.2054 122.547 13.4646 122.082 13.8102L121.27 11.6354C122.013 11.2372 122.771 10.9368 123.545 10.7339C124.325 10.5311 125.087 10.4297 125.83 10.4297C126.921 10.4297 127.865 10.64 128.661 11.0607C129.459 11.4739 130.073 12.0673 130.507 12.841C130.947 13.6073 131.168 14.5125 131.168 15.5566V21.9231ZM125.413 19.9173C125.915 19.9173 126.38 19.8159 126.805 19.6131C127.238 19.4103 127.591 19.1286 127.86 18.768C128.14 18.3999 128.287 17.9792 128.302 17.506V17.3821C127.939 17.1267 127.529 16.9313 127.071 16.7961C126.615 16.6533 126.155 16.582 125.691 16.582C124.979 16.582 124.396 16.7398 123.939 17.0552C123.483 17.3633 123.255 17.7689 123.255 18.2722C123.255 18.5803 123.348 18.8619 123.533 19.1174C123.718 19.3652 123.974 19.5606 124.298 19.7033C124.631 19.846 125.003 19.9173 125.413 19.9173ZM138.839 22.0132C137.763 22.0132 136.804 21.7615 135.961 21.2582C135.117 20.7549 134.452 20.0676 133.964 19.1962C133.477 18.3173 133.234 17.3257 133.234 16.2215C133.234 15.1097 133.477 14.1181 133.964 13.2467C134.452 12.3753 135.117 11.688 135.961 11.1846C136.804 10.6813 137.763 10.4297 138.839 10.4297C139.681 10.4297 140.459 10.5874 141.171 10.9029C141.883 11.2185 142.485 11.6579 142.981 12.2213L143.12 10.6551H145.627V21.6188C145.627 22.8659 145.352 23.9513 144.802 24.8753C144.262 25.7993 143.495 26.513 142.505 27.0163C141.514 27.5271 140.343 27.7824 138.989 27.7824C137.11 27.7824 135.427 27.2003 133.942 26.036L135.113 23.7711C136.15 24.7852 137.381 25.2922 138.803 25.2922C139.609 25.2922 140.304 25.1345 140.892 24.819C141.488 24.5109 141.948 24.0715 142.273 23.5006C142.605 22.9372 142.772 22.2762 142.772 21.5174V20.4357C142.277 20.9315 141.693 21.3183 141.02 21.5963C140.346 21.8743 139.619 22.0132 138.839 22.0132ZM139.465 19.5456C140.075 19.5456 140.629 19.414 141.125 19.1512C141.627 18.8807 142.025 18.5127 142.319 18.0468C142.621 17.5812 142.772 17.0515 142.772 16.4581V15.9623C142.772 15.3689 142.621 14.843 142.319 14.3848C142.025 13.9266 141.627 13.566 141.125 13.303C140.621 13.0326 140.068 12.8973 139.465 12.8973C138.83 12.8973 138.262 13.0439 137.76 13.3368C137.256 13.6223 136.858 14.0167 136.564 14.52C136.278 15.0233 136.134 15.5904 136.134 16.2215C136.134 16.8525 136.278 17.4196 136.564 17.9229C136.858 18.4262 137.256 18.8244 137.76 19.1174C138.262 19.4028 138.83 19.5456 139.465 19.5456ZM159.122 20.616C157.676 21.6376 156.093 22.1484 154.376 22.1484C153.131 22.1484 152.012 21.8855 151.023 21.3597C150.032 20.8338 149.247 20.1164 148.666 19.2075C148.094 18.291 147.809 17.2619 147.809 16.12C147.809 15.0308 148.068 14.058 148.586 13.2016C149.112 12.3452 149.827 11.6692 150.733 11.1734C151.645 10.6776 152.674 10.4297 153.819 10.4297C155.01 10.4297 156.055 10.7039 156.952 11.2523C157.857 11.7931 158.561 12.5481 159.063 13.5171C159.566 14.4787 159.818 15.5979 159.818 16.875V17.2356H150.882C151.023 17.7464 151.266 18.1971 151.614 18.5878C151.97 18.9783 152.411 19.2826 152.937 19.5005C153.463 19.7183 154.055 19.8272 154.712 19.8272C155.95 19.8272 157.095 19.4367 158.147 18.6554L159.122 20.616ZM150.767 15.6129H157.172C157.11 15.0496 156.933 14.5575 156.638 14.1369C156.352 13.7162 155.978 13.3895 155.513 13.1565C155.057 12.9162 154.542 12.7959 153.97 12.7959C153.39 12.7959 152.872 12.9162 152.415 13.1565C151.958 13.397 151.587 13.7312 151.301 14.1594C151.014 14.5801 150.836 15.0646 150.767 15.6129ZM173.464 21.9231H170.61V15.9736C170.61 15.0345 170.362 14.2947 169.867 13.7537C169.371 13.2054 168.702 12.9312 167.86 12.9312C166.993 12.9312 166.296 13.2204 165.771 13.7988C165.245 14.3698 164.982 15.1397 164.982 16.1087V21.9231H162.127V10.6551H164.483L164.576 12.4692C164.993 11.8081 165.543 11.3048 166.224 10.9593C166.912 10.6062 167.716 10.4297 168.637 10.4297C170.138 10.4297 171.318 10.8729 172.176 11.7593C173.035 12.6457 173.464 13.8702 173.464 15.4327V21.9231ZM186.402 20.1878C185.838 20.8113 185.154 21.2958 184.349 21.6414C183.544 21.9794 182.667 22.1484 181.715 22.1484C180.538 22.1484 179.482 21.8931 178.547 21.3822C177.618 20.8713 176.883 20.1765 176.342 19.2976C175.808 18.4112 175.541 17.4083 175.541 16.2891C175.541 15.1697 175.808 14.1706 176.342 13.2917C176.883 12.4053 177.618 11.7067 178.547 11.1959C179.482 10.6851 180.538 10.4297 181.715 10.4297C182.658 10.4297 183.528 10.5987 184.325 10.9368C185.13 11.2748 185.814 11.7518 186.38 12.3678L184.708 14.0918C184.36 13.7237 183.938 13.4383 183.444 13.2354C182.957 13.0326 182.437 12.9312 181.888 12.9312C181.223 12.9312 180.631 13.0739 180.113 13.3593C179.602 13.6448 179.201 14.0392 178.906 14.5425C178.621 15.0458 178.477 15.6242 178.477 16.2778C178.477 16.9313 178.621 17.5135 178.906 18.0243C179.201 18.5277 179.602 18.9257 180.113 19.2187C180.631 19.5042 181.223 19.6469 181.888 19.6469C182.437 19.6469 182.96 19.5456 183.456 19.3427C183.95 19.1324 184.368 18.8469 184.708 18.4863L186.402 20.1878ZM194.026 27.5571H190.975L193.388 21.878L187.632 10.6551H190.846L194.746 18.7117L198.18 10.6551H201.233L194.026 27.5571Z"
      fill="#00677F" />
    <mask id="mask0_440_3185" style="mask-type:luminance" maskUnits="userSpaceOnUse" x="0" y="0"
      width="71" height="30">
      <path d="M70.1059 0H0V30H70.1059V0Z" fill="white" />
    </mask>
    <g mask="url(#mask0_440_3185)">
      <path fill-rule="evenodd" clip-rule="evenodd"
        d="M8.75864 9.08736C6.96008 13.5035 5.12728 20.2227 3.27657 29.3109L0 28.6673C1.86202 19.5234 3.74198 12.5685 5.65617 7.86853C6.60982 5.52698 7.61035 3.64727 8.68733 2.32509C9.74258 1.02959 11.0994 0 12.7765 0C14.4536 0 15.8104 1.02959 16.8657 2.32509C17.9427 3.64727 18.9432 5.52698 19.8969 7.86853C21.2514 11.1943 22.5887 15.6492 23.9148 21.2098C25.2407 15.6492 26.5781 11.1943 27.9326 7.86853C28.8862 5.52698 29.8867 3.64727 30.9637 2.32509C32.019 1.02959 33.3759 0 35.0529 0C36.73 0 38.0869 1.02959 39.1421 2.32509C40.2191 3.64727 41.2196 5.52698 42.1733 7.86853C43.5278 11.1943 44.8652 15.6492 46.1911 21.2098C47.5172 15.6492 48.8545 11.1943 50.209 7.86853C51.1627 5.52698 52.1632 3.64727 53.2402 2.32509C54.2955 1.02959 55.6523 0 57.3294 0C59.0065 0 60.3633 1.02959 61.4186 2.32509C62.4955 3.64727 63.4961 5.52698 64.4498 7.86853C66.3639 12.5685 68.2438 19.5234 70.1059 28.6673L66.8293 29.3109C64.9786 20.2227 63.1458 13.5035 61.3473 9.08736C60.4446 6.87088 59.5887 5.33205 58.8093 4.37521C58.0082 3.3917 57.5087 3.28178 57.3294 3.28178C57.1501 3.28178 56.6505 3.3917 55.8494 4.37521C55.0701 5.33205 54.2142 6.87088 53.3115 9.08736C51.513 13.5035 49.6801 20.2227 47.8294 29.3109H44.5529C42.7022 20.2227 40.8694 13.5035 39.0708 9.08736C38.1681 6.87088 37.3123 5.33205 36.5329 4.37521C35.7318 3.3917 35.2322 3.28178 35.0529 3.28178C34.8736 3.28178 34.3741 3.3917 33.573 4.37521C32.7936 5.33205 31.9377 6.87087 31.035 9.08736C29.2365 13.5035 27.4037 20.2227 25.553 29.3109H22.2764C20.4258 20.2227 18.5929 13.5035 16.7944 9.08736C15.8917 6.87088 15.0358 5.33205 14.2564 4.37521C13.4553 3.3917 12.9558 3.28178 12.7765 3.28178C12.5972 3.28178 12.0977 3.3917 11.2966 4.37521C10.5172 5.33205 9.66135 6.87088 8.75864 9.08736Z"
        fill="#00677F" />
      <path
        d="M17.525 18.5713C17.525 21.1823 15.3453 23.2988 12.6565 23.2988C9.96777 23.2988 7.78809 21.1823 7.78809 18.5713C7.78809 15.9604 9.96777 13.8438 12.6565 13.8438C15.3453 13.8438 17.525 15.9604 17.525 18.5713Z"
        fill="#F5892E" />
    </g>
  </g>
  <defs>
    <clipPath id="clip0_440_3185">
      <rect width="202" height="30" fill="white" />
    </clipPath>
  </defs>
</svg>
